# xmcd CD database file
#
# Track frame offsets:
#	150
#	18225
#	41723
#	58864
#	75978
#	86317
#	100186
#	112020
#	121705
#	147169
#	167684
#	182019
#	200403
#	213424
#	231464
#	247907
#	264675
#	283238
#	299164
#	312554
#
# Disc length: 4296 seconds
#
# Revision: 0
# Processed by: cddbd v1.5.2PL0 Copyright (c) Steve Scherf et al.
# Submitted via: CDex 1.75
#
DISCID=2710c614
DTITLE=John Denver - Take Me Home Country Roads CD2
DYEAR=2003
DGENRE=Country
TTITLE0=Looking for Space
TTITLE1=Sunshine On My Shoulders
TTITLE2=Come and Let Me Look in Your Eyes
TTITLE3=I Want to Live
TTITLE4=Grandma's Feather Bed
TTITLE5=Rocky Mountain Suite
TTITLE6=It Amazes Me
TTITLE7=I Guess I'd Rather Be in Colerado
TTITLE8=Flying for Me
TTITLE9=Sing Australia
TTITLE10=Shanghai Breezes
TTITLE11=Wild Montana Skies
TTITLE12=This Old Guitar
TTITLE13=Wind Song
TTITLE14=Autograph
TTITLE15=It's About Time
TTITLE16=Dreamland Express
TTITLE17=Two Different Directions
TTITLE18=Whispering Jesse
TTITLE19=The Eagle and the Hawk
EXTD=YEAR: 2003
EXTT0=
EXTT1=
EXTT2=
EXTT3=
EXTT4=
EXTT5=
EXTT6=
EXTT7=
EXTT8=
EXTT9=
EXTT10=
EXTT11=
EXTT12=
EXTT13=
EXTT14=
EXTT15=
EXTT16=
EXTT17=
EXTT18=
EXTT19=
PLAYORDER=
